<svg width="43" height="41" viewBox="0 0 43 41" fill="none" xmlns="http://www.w3.org/2000/svg">
<g style="mix-blend-mode:soft-light">
<path d="M22.5 14C18.08 14 14.5 17.58 14.5 22C14.5 26.42 18.08 30 22.5 30C26.92 30 30.5 26.42 30.5 22C30.5 17.58 26.92 14 22.5 14ZM40.38 20C39.927 15.9442 38.1083 12.1631 35.2226 9.27739C32.3369 6.3917 28.5558 4.57302 24.5 4.12V2C24.5 0.9 23.6 0 22.5 0C21.4 0 20.5 0.9 20.5 2V4.12C16.4442 4.57302 12.6631 6.3917 9.77739 9.27739C6.8917 12.1631 5.07302 15.9442 4.62 20H2.5C1.4 20 0.5 20.9 0.5 22C0.5 23.1 1.4 24 2.5 24H4.62C5.07302 28.0558 6.8917 31.8369 9.77739 34.7226C12.6631 37.6083 16.4442 39.427 20.5 39.88V42C20.5 43.1 21.4 44 22.5 44C23.6 44 24.5 43.1 24.5 42V39.88C28.5558 39.427 32.3369 37.6083 35.2226 34.7226C38.1083 31.8369 39.927 28.0558 40.38 24H42.5C43.6 24 44.5 23.1 44.5 22C44.5 20.9 43.6 20 42.5 20H40.38ZM22.5 36C14.76 36 8.5 29.74 8.5 22C8.5 14.26 14.76 8 22.5 8C30.24 8 36.5 14.26 36.5 22C36.5 29.74 30.24 36 22.5 36Z" fill="url(#paint0_linear_359_32)"/>
</g>
<defs>
<linearGradient id="paint0_linear_359_32" x1="22.0111" y1="57.9333" x2="-24.8461" y2="27.0973" gradientUnits="userSpaceOnUse">
<stop/>
<stop offset="0.989473" stop-opacity="0"/>
</linearGradient>
</defs>
</svg>
