<svg width="335" height="388" viewBox="0 0 335 388" fill="none" xmlns="http://www.w3.org/2000/svg">
<path fill-rule="evenodd" clip-rule="evenodd" d="M119.996 87.6666H171.755L160.343 76.2548C157.219 73.1306 157.219 68.0653 160.343 64.9411C163.467 61.8169 168.533 61.8169 171.657 64.9411L184.738 78.0226L218.679 44.0815C221.804 40.9573 226.869 40.9573 229.993 44.0815C233.117 47.2057 233.117 52.271 229.993 55.3952L197.722 87.6666H270.004C264.112 51.5584 232.774 24 195 24C157.226 24 125.888 51.5584 119.996 87.6666ZM95.753 87.6666C101.83 38.2571 143.947 0 195 0C246.053 0 288.17 38.2571 294.247 87.6666H317.5C320.391 87.668 323.231 88.4241 325.739 89.8602C328.248 91.2962 330.338 93.3624 331.802 95.8542C333.267 98.3461 334.056 101.177 334.091 104.067C334.125 106.958 333.405 109.807 332 112.333L272.333 220.5C266.667 230.833 255.667 237.667 243.167 237.667H119L100.667 271H284C293.167 271 300.667 278.5 300.667 287.667C300.667 296.833 293.167 304.333 284 304.333H100.667C75.3335 304.333 59.3335 277.167 71.5001 254.833L94.0001 214.167L34.0001 87.6666H17.3335C8.16679 87.6666 0.666786 80.1666 0.666786 70.9999C0.666786 61.8332 8.16679 54.3332 17.3335 54.3332H44.6668C47.8112 54.3282 50.8921 55.219 53.5486 56.9014C56.2051 58.5839 58.3273 60.9883 59.6668 63.8332L70.8335 87.6666H95.753ZM100.667 321C82.3335 321 67.5001 336 67.5001 354.333C67.5001 372.667 82.3335 387.667 100.667 387.667C119 387.667 134 372.667 134 354.333C134 336 119 321 100.667 321ZM267.333 321C249 321 234.167 336 234.167 354.333C234.167 372.667 249 387.667 267.333 387.667C285.667 387.667 300.667 372.667 300.667 354.333C300.667 336 285.667 321 267.333 321Z" fill="black"/>
</svg>
