<svg width="51" height="34" viewBox="0 0 51 34" fill="none" xmlns="http://www.w3.org/2000/svg">
<g style="mix-blend-mode:soft-light">
<path d="M11.7288 8.54876H3.3072C1.76324 8.54876 0.5 7.26845 0.5 5.70363C0.5 4.13881 1.76324 2.85851 3.3072 2.85851H11.7288C13.2727 2.85851 14.536 4.13881 14.536 5.70363C14.536 7.26845 13.2727 8.54876 11.7288 8.54876ZM11.7288 17.0841H3.3072C1.76324 17.0841 0.5 18.3644 0.5 19.9293C0.5 21.4941 1.76324 22.7744 3.3072 22.7744H11.7288C13.2727 22.7744 14.536 21.4941 14.536 19.9293C14.536 18.3644 13.2727 17.0841 11.7288 17.0841ZM50.6927 34.98L41.9342 26.1032C39.52 27.6964 36.6286 28.6069 33.5126 28.4362C26.8596 28.1232 21.161 22.8597 20.2627 16.1737C19.9662 13.9515 20.1909 11.6897 20.9186 9.57196C21.6462 7.45424 22.8563 5.54025 24.4507 3.98538C26.045 2.4305 27.9786 1.27854 30.0945 0.62301C32.2104 -0.03252 34.449 -0.173147 36.6286 0.212542C42.1027 1.15143 46.6503 5.47602 47.8574 10.9671C48.7838 15.121 47.8855 18.9904 45.8924 22.0631L54.6789 30.9683C55.7737 32.0779 55.7737 33.8704 54.6789 34.98C53.5841 36.0896 51.7875 36.0896 50.6927 34.98ZM42.608 14.239C42.608 9.54455 38.8182 5.70363 34.1864 5.70363C29.5545 5.70363 25.7648 9.54455 25.7648 14.239C25.7648 18.9335 29.5545 22.7744 34.1864 22.7744C38.8182 22.7744 42.608 18.9335 42.608 14.239ZM3.3072 37H25.7648C27.3087 37 28.572 35.7197 28.572 34.1549C28.572 32.5901 27.3087 31.3098 25.7648 31.3098H3.3072C1.76324 31.3098 0.5 32.5901 0.5 34.1549C0.5 35.7197 1.76324 37 3.3072 37Z" fill="url(#paint0_linear_359_98)"/>
</g>
<defs>
<linearGradient id="paint0_linear_359_98" x1="27.3889" y1="48.7167" x2="-15.5033" y2="6.75813" gradientUnits="userSpaceOnUse">
<stop/>
<stop offset="0.989473" stop-opacity="0"/>
</linearGradient>
</defs>
</svg>
